<svg width="1042" height="191" viewBox="0 0 1042 191" fill="none" xmlns="http://www.w3.org/2000/svg">
<path d="M82.5 1.5H948.5V190.5H82.5V1.5Z" fill="#F8F8F8" stroke="black"/>
<rect x="294" y="1" width="221" height="189" fill="#5EFB44" stroke="black" stroke-width="2"/>
<rect x="517" y="1" width="221" height="189" fill="#5EFB44" stroke="black" stroke-width="2"/>
<path d="M1002.9 130H978.146V60.1818H1003.1C1010.12 60.1818 1016.17 61.5795 1021.24 64.375C1026.31 67.1477 1030.2 71.1364 1032.93 76.3409C1035.68 81.5455 1037.06 87.7727 1037.06 95.0227C1037.06 102.295 1035.68 108.545 1032.93 113.773C1030.2 119 1026.28 123.011 1021.17 125.807C1016.08 128.602 1009.99 130 1002.9 130ZM992.908 117.352H1002.28C1006.65 117.352 1010.32 116.58 1013.29 115.034C1016.29 113.466 1018.54 111.045 1020.04 107.773C1021.57 104.477 1022.33 100.227 1022.33 95.0227C1022.33 89.8636 1021.57 85.6477 1020.04 82.375C1018.54 79.1023 1016.31 76.6932 1013.33 75.1477C1010.35 73.6023 1006.68 72.8295 1002.32 72.8295H992.908V117.352Z" fill="black"/>
<path d="M6.17756 130V60.1818H53.223V72.3523H20.9389V88.9886H50.8026V101.159H20.9389V117.83H53.3594V130H6.17756Z" fill="black"/>
</svg>
