<svg width="96" height="96" viewBox="0 0 96 96" fill="none" xmlns="http://www.w3.org/2000/svg">
<path d="M47.9994 28.524C45.4418 28.524 42.9092 29.0277 40.5463 30.0065C38.1834 30.9853 36.0363 32.4199 34.2278 34.2284C32.4193 36.0369 30.9847 38.1839 30.006 40.5468C29.0272 42.9098 28.5234 45.4424 28.5234 48C28.5234 50.5576 29.0272 53.0902 30.006 55.4531C30.9847 57.8161 32.4193 59.9631 34.2278 61.7716C36.0363 63.5801 38.1834 65.0147 40.5463 65.9935C42.9092 66.9722 45.4418 67.476 47.9994 67.476C53.1648 67.476 58.1186 65.4241 61.7711 61.7716C65.4235 58.1191 67.4754 53.1653 67.4754 48C67.4754 42.8346 65.4235 37.8808 61.7711 34.2284C58.1186 30.5759 53.1648 28.524 47.9994 28.524ZM34.5234 48C34.5234 44.4259 35.9432 40.9983 38.4705 38.471C40.9977 35.9438 44.4254 34.524 47.9994 34.524C51.5735 34.524 55.0012 35.9438 57.5284 38.471C60.0556 40.9983 61.4754 44.4259 61.4754 48C61.4754 51.574 60.0556 55.0017 57.5284 57.529C55.0012 60.0562 51.5735 61.476 47.9994 61.476C44.4254 61.476 40.9977 60.0562 38.4705 57.529C35.9432 55.0017 34.5234 51.574 34.5234 48Z" fill="#F8F8F8"/>
<path d="M58.7759 8.05799C55.6139 -2.68201 40.3859 -2.68201 37.2239 8.05799L36.6599 9.97199C36.4391 10.7217 36.0533 11.4125 35.5308 11.9937C35.0083 12.575 34.3624 13.0319 33.6404 13.3311C32.9183 13.6303 32.1385 13.7641 31.3581 13.7227C30.5776 13.6813 29.8163 13.4658 29.1299 13.092L27.3779 12.132C17.5379 6.77999 6.77993 17.544 12.1379 27.378L13.0919 29.13C13.4658 29.8163 13.6813 30.5777 13.7226 31.3581C13.764 32.1386 13.6302 32.9184 13.331 33.6404C13.0319 34.3625 12.5749 35.0084 11.9937 35.5309C11.4124 36.0534 10.7216 36.4392 9.97193 36.66L8.05793 37.224C-2.68207 40.386 -2.68207 55.614 8.05793 58.776L9.97193 59.34C10.7216 59.5608 11.4124 59.9466 11.9937 60.4691C12.5749 60.9916 13.0319 61.6375 13.331 62.3595C13.6302 63.0816 13.764 63.8614 13.7226 64.6419C13.6813 65.4223 13.4658 66.1836 13.0919 66.87L12.1319 68.622C6.77993 78.462 17.5379 89.226 27.3779 83.862L29.1299 82.908C29.8163 82.5342 30.5776 82.3187 31.3581 82.2773C32.1385 82.2359 32.9183 82.3697 33.6404 82.6689C34.3624 82.968 35.0083 83.425 35.5308 84.0062C36.0533 84.5875 36.4391 85.2783 36.6599 86.028L37.2239 87.942C40.3859 98.682 55.6139 98.682 58.7759 87.942L59.3399 86.028C59.5608 85.2783 59.9465 84.5875 60.469 84.0062C60.9915 83.425 61.6374 82.968 62.3595 82.6689C63.0815 82.3697 63.8613 82.2359 64.6418 82.2773C65.4223 82.3187 66.1836 82.5342 66.8699 82.908L68.6219 83.868C78.4619 89.226 89.2259 78.456 83.8619 68.622L82.9079 66.87C82.5341 66.1836 82.3186 65.4223 82.2772 64.6419C82.2358 63.8614 82.3697 63.0816 82.6688 62.3595C82.968 61.6375 83.4249 60.9916 84.0062 60.4691C84.5874 59.9466 85.2782 59.5608 86.0279 59.34L87.9419 58.776C98.6819 55.614 98.6819 40.386 87.9419 37.224L86.0279 36.66C85.2782 36.4392 84.5874 36.0534 84.0062 35.5309C83.4249 35.0084 82.968 34.3625 82.6688 33.6404C82.3697 32.9184 82.2358 32.1386 82.2772 31.3581C82.3186 30.5777 82.5341 29.8163 82.9079 29.13L83.8679 27.378C89.2259 17.538 78.4559 6.77999 68.6219 12.138L66.8699 13.092C66.1836 13.4658 65.4223 13.6813 64.6418 13.7227C63.8613 13.7641 63.0815 13.6303 62.3595 13.3311C61.6374 13.0319 60.9915 12.575 60.469 11.9937C59.9465 11.4125 59.5608 10.7217 59.3399 9.97199L58.7759 8.05799ZM42.9779 9.75599C44.4539 4.74599 51.5459 4.74599 53.0219 9.75599L53.5859 11.67C54.0601 13.2785 54.8881 14.7605 56.0095 16.0074C57.1308 17.2543 58.517 18.2344 60.0664 18.8759C61.6158 19.5174 63.2891 19.804 64.9636 19.7147C66.6382 19.6255 68.2715 19.1626 69.7439 18.36L71.4899 17.4C76.0739 14.91 81.0899 19.92 78.5939 24.51L77.6399 26.262C76.8386 27.7346 76.3768 29.3678 76.2885 31.0419C76.2002 32.7161 76.4876 34.3888 77.1296 35.9375C77.7717 37.4862 78.752 38.8716 79.999 39.9922C81.2459 41.1129 82.7277 41.9403 84.3359 42.414L86.2439 42.978C91.2539 44.454 91.2539 51.546 86.2439 53.022L84.3299 53.586C82.7214 54.0601 81.2394 54.8882 79.9925 56.0095C78.7457 57.1309 77.7655 58.5171 77.1241 60.0664C76.4826 61.6158 76.1959 63.2891 76.2852 64.9637C76.3745 66.6382 76.8373 68.2716 77.6399 69.744L78.5999 71.49C81.0899 76.074 76.0799 81.09 71.4899 78.594L69.7439 77.64C68.2711 76.8375 66.6374 76.3748 64.9625 76.2859C63.2876 76.1971 61.6141 76.4842 60.0646 77.1263C58.5152 77.7684 57.1291 78.7492 56.008 79.9967C54.887 81.2443 54.0594 82.727 53.5859 84.336L53.0219 86.244C51.5459 91.254 44.4539 91.254 42.9779 86.244L42.4139 84.33C41.9396 82.7223 41.1116 81.2411 39.9907 79.9949C38.8698 78.7486 37.4843 77.7689 35.9357 77.1275C34.3871 76.4861 32.7146 76.1992 31.0407 76.2879C29.3669 76.3766 27.7341 76.8385 26.2619 77.64L24.5099 78.6C19.9259 81.09 14.9099 76.08 17.4059 71.49L18.3599 69.744C19.1636 68.2714 19.6274 66.6375 19.7173 64.9622C19.8071 63.2869 19.5208 61.6128 18.8792 60.0626C18.2376 58.5125 17.2571 57.1256 16.0096 56.0039C14.7621 54.8821 13.2793 54.0539 11.6699 53.58L9.75593 53.016C4.74593 51.54 4.74593 44.448 9.75593 42.972L11.6699 42.408C13.2768 41.9334 14.7572 41.1056 16.0028 39.9851C17.2484 38.8646 18.2277 37.4798 18.869 35.9319C19.5104 34.3841 19.7975 32.7124 19.7094 31.0393C19.6213 29.3662 19.1603 27.7339 18.3599 26.262L17.3999 24.51C14.9099 19.926 19.9199 14.91 24.5099 17.406L26.2619 18.36C27.7341 19.1614 29.3669 19.6234 31.0407 19.7121C32.7146 19.8008 34.3871 19.5139 35.9357 18.8725C37.4843 18.2311 38.8698 17.2514 39.9907 16.0051C41.1116 14.7589 41.9396 13.2777 42.4139 11.67L42.9779 9.75599Z" fill="#F8F8F8"/>
</svg>
