<svg width="72" height="72" viewBox="0 0 72 72" fill="none" xmlns="http://www.w3.org/2000/svg">
<path d="M6 72C6 72 0 72 0 66C0 60 6 42 36 42C66 42 72 60 72 66C72 72 66 72 66 72H6ZM36 36C40.7739 36 45.3523 34.1036 48.7279 30.7279C52.1036 27.3523 54 22.7739 54 18C54 13.2261 52.1036 8.64773 48.7279 5.27208C45.3523 1.89642 40.7739 0 36 0C31.2261 0 26.6477 1.89642 23.2721 5.27208C19.8964 8.64773 18 13.2261 18 18C18 22.7739 19.8964 27.3523 23.2721 30.7279C26.6477 34.1036 31.2261 36 36 36Z" fill="#F8F8F8"/>
</svg>
