<svg width="96" height="96" viewBox="0 0 96 96" fill="none" xmlns="http://www.w3.org/2000/svg">
<path fill-rule="evenodd" clip-rule="evenodd" d="M0 0H6V90H96V96H0V0ZM88.902 18.678C89.2071 18.9277 89.46 19.235 89.6463 19.5824C89.8325 19.9299 89.9484 20.3107 89.9875 20.703C90.0265 21.0952 89.9878 21.4914 89.8736 21.8687C89.7594 22.246 89.572 22.5972 89.322 22.902L62.322 55.902C62.0566 56.2259 61.7264 56.4907 61.3525 56.6793C60.9786 56.8679 60.5694 56.9761 60.1512 56.997C59.733 57.0179 59.315 56.951 58.9242 56.8007C58.5334 56.6503 58.1784 56.4198 57.882 56.124L42.36 40.602L20.424 70.764C19.9441 71.3742 19.2464 71.7746 18.4775 71.8811C17.7086 71.9876 16.9283 71.792 16.3006 71.3352C15.673 70.8784 15.2468 70.1961 15.1117 69.4317C14.9765 68.6673 15.143 67.8803 15.576 67.236L39.576 34.236C39.8307 33.8851 40.1585 33.5936 40.5368 33.3815C40.915 33.1695 41.3347 33.042 41.767 33.0077C42.1993 32.9735 42.6339 33.0334 43.0408 33.1833C43.4477 33.3332 43.8172 33.5695 44.124 33.876L59.778 49.536L84.678 19.098C84.9277 18.7929 85.235 18.54 85.5825 18.3537C85.9299 18.1675 86.3107 18.0515 86.7029 18.0125C87.0952 17.9735 87.4914 18.0122 87.8687 18.1264C88.246 18.2406 88.5972 18.428 88.902 18.678Z" fill="#F8F8F8"/>
</svg>
