<svg width="96" height="84" viewBox="0 0 96 84" fill="none" xmlns="http://www.w3.org/2000/svg">
<path d="M0 6C0 4.4087 0.632141 2.88258 1.75736 1.75736C2.88258 0.632141 4.4087 0 6 0H90C91.5913 0 93.1174 0.632141 94.2426 1.75736C95.3679 2.88258 96 4.4087 96 6V78C96 79.5913 95.3679 81.1174 94.2426 82.2426C93.1174 83.3679 91.5913 84 90 84H6C4.4087 84 2.88258 83.3679 1.75736 82.2426C0.632141 81.1174 0 79.5913 0 78V6ZM51 6V54H90V6H51ZM51 60V78H90V60H51ZM45 6H6V24H45V6ZM6 78H45V30H6V78Z" fill="#784200"/>
</svg>
