<svg width="84" height="96" viewBox="0 0 84 96" fill="none" xmlns="http://www.w3.org/2000/svg">
<path d="M58.968 0.732011C59.2925 1.01403 59.5526 1.36249 59.7306 1.7538C59.9087 2.1451 60.0005 2.5701 60 3.00001V6.00001H63C65.3869 6.00001 67.6761 6.94822 69.364 8.63605C71.0518 10.3239 72 12.6131 72 15V90H81C81.7956 90 82.5587 90.3161 83.1213 90.8787C83.6839 91.4413 84 92.2044 84 93C84 93.7957 83.6839 94.5587 83.1213 95.1213C82.5587 95.6839 81.7956 96 81 96H3C2.20435 96 1.44129 95.6839 0.87868 95.1213C0.31607 94.5587 0 93.7957 0 93C0 92.2044 0.31607 91.4413 0.87868 90.8787C1.44129 90.3161 2.20435 90 3 90H12V9.00001C12.0001 8.2772 12.2612 7.57874 12.7352 7.03306C13.2092 6.48739 13.8643 6.1312 14.58 6.03001L56.58 0.0300108C57.0051 -0.0306975 57.4383 0.000558563 57.8502 0.121666C58.2622 0.242774 58.6434 0.450912 58.968 0.732011ZM63 12H60V90H66V15C66 14.2044 65.6839 13.4413 65.1213 12.8787C64.5587 12.3161 63.7957 12 63 12ZM18 11.604V90H54V6.46201L18 11.604Z" fill="#F8F8F8"/>
</svg>
