<svg width="256" height="256" viewBox="0 0 256 256" fill="none" xmlns="http://www.w3.org/2000/svg">
<path fill-rule="evenodd" clip-rule="evenodd" d="M0 128C0 94.0523 13.4857 61.495 37.4903 37.4903C61.495 13.4857 94.0523 0 128 0C161.948 0 194.505 13.4857 218.51 37.4903C242.514 61.495 256 94.0523 256 128C256 161.948 242.514 194.505 218.51 218.51C194.505 242.514 161.948 256 128 256C94.0523 256 61.495 242.514 37.4903 218.51C13.4857 194.505 0 161.948 0 128ZM128 16C106.908 16.0011 86.2459 21.9578 68.3904 33.1844C50.535 44.4111 36.2125 60.4514 27.0714 79.4591C17.9303 98.4668 14.3422 119.669 16.72 140.627C19.0978 161.584 27.3448 181.443 40.512 197.92C51.872 179.616 76.88 160 128 160C179.12 160 204.112 179.6 215.488 197.92C228.655 181.443 236.902 161.584 239.28 140.627C241.658 119.669 238.07 98.4668 228.929 79.4591C219.787 60.4514 205.465 44.4111 187.61 33.1844C169.754 21.9578 149.092 16.0011 128 16Z" fill="#F8F8F8"/>
</svg>
